<?xml version="1.0" encoding="UTF-8" standalone="no"?>
<!-- Created with Inkscape (http://www.inkscape.org/) -->

<svg
   xmlns:dc="http://purl.org/dc/elements/1.1/"
   xmlns:cc="http://creativecommons.org/ns#"
   xmlns:rdf="http://www.w3.org/1999/02/22-rdf-syntax-ns#"
   xmlns:svg="http://www.w3.org/2000/svg"
   xmlns="http://www.w3.org/2000/svg"
   xmlns:sodipodi="http://sodipodi.sourceforge.net/DTD/sodipodi-0.dtd"
   xmlns:inkscape="http://www.inkscape.org/namespaces/inkscape"
   width="300"
   height="300"
   viewBox="0 0 79.374998 79.375002"
   version="1.1"
   id="svg890"
   inkscape:version="0.92.4 (5da689c313, 2019-01-14)"
   sodipodi:docname="template2_2021.svg">
  <defs
     id="defs884" />
  <sodipodi:namedview
     id="base"
     pagecolor="#ffffff"
     bordercolor="#666666"
     borderopacity="1.0"
     inkscape:pageopacity="0.0"
     inkscape:pageshadow="2"
     inkscape:zoom="1.4"
     inkscape:cx="177.30823"
     inkscape:cy="135.15265"
     inkscape:document-units="px"
     inkscape:current-layer="layer1"
     showgrid="false"
     units="px"
     inkscape:snap-global="false"
     inkscape:window-width="1296"
     inkscape:window-height="704"
     inkscape:window-x="70"
     inkscape:window-y="27"
     inkscape:window-maximized="1" />
  <metadata
     id="metadata887">
    <rdf:RDF>
      <cc:Work
         rdf:about="">
        <dc:format>image/svg+xml</dc:format>
        <dc:type
           rdf:resource="http://purl.org/dc/dcmitype/StillImage" />
        <dc:title></dc:title>
      </cc:Work>
    </rdf:RDF>
  </metadata>
  <g
     inkscape:label="Layer 1"
     inkscape:groupmode="layer"
     id="layer1"
     transform="translate(0,-217.62498)">
    <path
       style="opacity:1;fill:#4552b2;fill-opacity:1;stroke:none;stroke-width:0.80901432;stroke-miterlimit:4;stroke-dasharray:none;stroke-opacity:1"
       d="m 40.159822,227.26315 a 30.305936,30.049107 0 0 0 -26.177728,14.98306 l 7.260021,1.69034 a 23.25361,23.056546 0 0 1 18.917707,-9.68055 23.25361,23.056546 0 0 1 22.951054,19.42827 l 7.257439,1.68982 A 30.305936,30.049107 0 0 0 40.159822,227.26315 Z M 8.0889124,241.85347 c 17.9678956,20.69471 5.1555616,23.1902 0,31.10663 l 63.1971756,-16.2295 -0.264067,-0.22531 z m 3.3413986,6.01307 a 30.305936,30.049107 0 0 0 -1.5761317,9.44593 30.305936,30.049107 0 0 0 1.8438157,10.21282 c 4.007742,-4.29816 6.64836,-9.1738 -0.267684,-19.65875 z m 59.022752,9.80819 -7.150467,1.83606 A 23.25361,23.056546 0 0 1 40.159822,280.36895 23.25361,23.056546 0 0 1 21.024558,270.36852 l -7.158736,1.83814 a 30.305936,30.049107 0 0 0 26.294,15.15514 30.305936,30.049107 0 0 0 30.293241,-29.68707 z"
       id="path1437"
       inkscape:connector-curvature="0" />
  </g>
</svg>
